<svg width="122" height="139" xmlns="http://www.w3.org/2000/svg">
 <!-- Created with Method Draw - http://github.com/duopixel/Method-Draw/ -->

 <g>
  <title>background</title>
  <rect fill="#fff" id="canvas_background" height="141" width="124" y="-1" x="-1"/>
  <g display="none" overflow="visible" y="0" x="0" height="100%" width="100%" id="canvasGrid">
   <rect fill="url(#gridpattern)" stroke-width="0" y="0" x="0" height="100%" width="100%"/>
  </g>
 </g>
 <g>
  <title>Layer 1</title>
  <g stroke="null" id="svg_10">
   <path stroke="#000" id="svg_2" d="m48.950113,4.864832l0,68.187754l0,0c0,29.290377 -8.971608,53.034925 -20.03865,53.034925l0,0l0,0c-5.314579,0 -10.411488,-5.587593 -14.169468,-15.53357c-3.757977,-9.945976 -5.869181,-23.435617 -5.869181,-37.501355l0,-7.576418l-5.725324,0l11.45065,-30.305682l11.45066,30.305682l-5.725329,0l0,7.576418c0,12.553017 3.844977,22.729247 8.58799,22.729247l0,0l0,0c4.743019,0 8.587993,-10.17623 8.587993,-22.729247l0,-68.187754l11.450659,0z" stroke-opacity="null" stroke-width="5" fill="#894F3F"/>
   <path stroke="#000" id="svg_6" d="m51.644045,3.5c0,0 40.9813,0.859735 40.579522,0.429868c0.401777,0.429868 13.258656,32.240072 12.856878,31.810204c0.401777,0.429868 -8.437326,26.221925 -8.839104,25.792058c0.401777,0.429868 12.455101,21.923249 12.053323,21.493381c0.401777,0.429868 1.205332,40.837424 0.803555,40.407557c0.401777,0.429868 -58.25773,-1.289603 -58.659507,-1.719471c0.401777,0.429868 1.205332,-118.213597 1.205332,-118.213597z" stroke-opacity="null" stroke-width="5" fill="#444444"/>
   <ellipse stroke="#000" ry="10.746691" rx="10.044436" id="svg_7" cy="34.880337" cx="73.741805" stroke-opacity="null" stroke-width="5" fill="#ffffff"/>
   <ellipse stroke="#000" ry="15.045367" rx="11.249768" id="svg_8" cy="89.043657" cx="74.947137" stroke-opacity="null" stroke-width="5" fill="#ffffff"/>
  </g>
  <!-- Created with Vector Paint - http://www.vectorpaint.yaks.com/ https://chrome.google.com/webstore/detail/hnbpdiengicdefcjecjbnjnoifekhgdo -->
  <defs>
   <marker orient="auto" refY="0" refX="0" id="svg_22">
    <path fill=" rgb(34, 34, 34)" id="svg_23" stroke-width="1pt" stroke="#000" fill-rule="evenodd" d="m0,0l5,-5l-17.5,5l17.5,5l-5,-5z" transform="scale(0.4000000059604645) translate(10,0) "/>
   </marker>
  </defs>
  <g id="svg_34">
   <rect transform="matrix(0.0035558634131943744,0,0,0.0035558634131943744,0,0) " fill="#FFFFFF" y="19475.683007" x="17121.621859" height="139" width="122" id="svg_30"/>
   <g transform="matrix(0.0035558634131943744,0,0,0.0035558634131943744,0,0) " id="svg_32" class="currentLayer">
    <title transform="translate(17121.62109375,0) translate(0,19475.68359375) ">Layer 1</title>
    <g id="svg_33">
     <path d="m17188.360694,19477.691794l0.73364,57.25397l0,0c0.31513,24.59372 -12.08947,44.6858 -27.70646,44.87693l0,0l0,0c-7.49954,0.09178 -14.75204,-4.51184 -20.16203,-12.79809c-5.40999,-8.28626 -8.5343,-19.57641 -8.68563,-31.38673l-0.08152,-6.36155l-8.07915,0.09887l15.83225,-25.64397l16.48438,25.24848l-8.07916,0.09887l0.08152,6.36156c0.13506,10.54016 5.67029,19.01825 12.36328,18.93634l0,0l0,0c6.693,-0.08191 12.00925,-8.6928 11.87419,-19.23297l-0.73363,-57.25397l16.15832,-0.19774z" id="svg_29" fill-rule="nonzero" stroke-linejoin="round" stroke-width="2" stroke="#222222" fill="#4a90d6"/>
     <path d="m17065.905854,19492.955254" id="svg_28" marker-start="url(#svg_22)" fill-rule="nonzero" stroke-linejoin="round" stroke-width="2" stroke="#222222" fill="#4a90d6"/>
     <path d="m17190.491414,19477.179524c0,0 37.89978,-0.45032 37.80079,-0.64846c0.09899,0.19814 5.51325,25.86669 5.41425,25.66855c0.099,0.19814 -10.34278,21.36344 -10.44178,21.1653c0.099,0.19814 16.34177,12.35692 16.24277,12.15878c0.099,0.19814 -1.0612,42.97906 -1.1602,42.78093c0.099,0.19813 -49.01603,-2.0535 -49.11503,-2.25163c0.099,0.19813 1.2592,-98.87347 1.2592,-98.87347z" id="svg_27" marker-start="url(#svg_22)" fill-rule="nonzero" stroke-linejoin="round" stroke-width="2" stroke="#222222" fill="#4a90d6"/>
     <path d="m17201.017934,19562.266774" id="svg_26" marker-start="url(#svg_22)" fill-rule="nonzero" stroke-linejoin="round" stroke-width="2" stroke="#222222" fill="#4a90d6"/>
     <path id="svg_25" d="m17203.255144,19500.175944c0,-4.00387 3.2,-7.24701 7.15062,-7.24701c3.95061,0 7.15061,3.24314 7.15061,7.24701c0,4.00387 -3.2,7.247 -7.15061,7.247c-3.95062,0 -7.15062,-3.24313 -7.15062,-7.247z" fill-rule="nonzero" stroke-linejoin="round" stroke-width="2" stroke="#dadada" fill="#ffffff"/>
     <path id="svg_24" d="m17203.255144,19554.528464c0,-5.43383 4.74074,-9.83522 10.5935,-9.83522c5.85277,0 10.59351,4.40139 10.59351,9.83522c0,5.43382 -4.74074,9.83521 -10.59351,9.83521c-5.85276,0 -10.5935,-4.40139 -10.5935,-9.83521z" fill-rule="nonzero" stroke-linejoin="round" stroke-width="2" stroke="#dadada" fill="#ffffff"/>
    </g>
   </g>
  </g>
 </g>
</svg>