<svg xmlns="http://www.w3.org/2000/svg" xmlns:se="http://svg-edit.googlecode.com" xmlns:xlink="http://www.w3.org/1999/xlink" xmlns:dc="http://purl.org/dc/elements/1.1/" xmlns:cc="http://creativecommons.org/ns#" xmlns:rdf="http://www.w3.org/1999/02/22-rdf-syntax-ns#" xmlns:inkscape="http://www.inkscape.org/namespaces/inkscape" width="777" height="480">                                    <title>my vector image</title>                                    <!-- Created with Vector Paint - http://www.vectorpaint.yaks.com/ https://chrome.google.com/webstore/detail/hnbpdiengicdefcjecjbnjnoifekhgdo -->                                    <rect id="backgroundrect" width="100%" height="100%" x="0" y="0" fill="#FFFFFF" stroke="none"/>                                <g class="currentLayer"><title>Layer 1</title><g class=""><path fill="#4a90d6" stroke="#222222" stroke-width="2" stroke-linejoin="round" stroke-dashoffset="" fill-rule="nonzero" marker-start="" marker-mid="" marker-end="" id="svg_1" d="M66.73960355065479,2.0081964133066297 L67.47323593061974,59.26216744343985 L67.47323593061974,59.26216744343985 C67.7883712388412,83.85588536023336 55.383769089696756,103.9479736177547 39.766778695094395,104.13909598492789 L39.766778695094395,104.13909598492789 L39.766778695094395,104.13909598492789 C32.267238170146626,104.23087614881493 25.01474060668636,99.62726437807024 19.604748975786972,91.34100576196836 C14.194761682690293,83.0547470927802 11.070450929779273,71.76460490328127 10.919117587369275,59.95428267806854 L10.837602863895503,53.59272920285355 L2.758449297437604,53.69160273196263 L18.590699617827912,28.04763491514396 L35.07508308339117,53.29610837663697 L26.995923010226033,53.39498198537583 L27.077437733699792,59.75653546059081 C27.212495704180583,70.2966988182458 32.747728831520895,78.77478819373209 39.44071758853053,78.69287869501427 L39.44071758853053,78.69287869501427 L39.44071758853053,78.69287869501427 C46.13371502114924,78.6109690901234 51.44997158587079,70.00007804511576 51.314913615390005,59.45991468746077 L50.58128123542507,2.2059436573275555 L66.73960355065479,2.0081964133066297 z" style="color: rgb(74, 144, 214);" class=""/><path fill="#4a90d6" fill-opacity="1" stroke="#222222" stroke-opacity="1" stroke-width="2" stroke-dasharray="none" stroke-linejoin="round" stroke-linecap="butt" stroke-dashoffset="" fill-rule="nonzero" opacity="1" marker-start="url(#Arrow1Mstart)" marker-mid="" marker-end="" id="svg_9" d="M-55.715244668293494,17.271662083806035 " style="color: rgb(74, 144, 214);" class=""/><path fill="#4a90d6" fill-opacity="1" stroke="#222222" stroke-opacity="1" stroke-width="2" stroke-dasharray="none" stroke-linejoin="round" stroke-linecap="butt" stroke-dashoffset="" fill-rule="nonzero" opacity="1" marker-start="url(#Arrow1Mstart)" marker-mid="" marker-end="" id="svg_3" d="M68.87031618194054,1.4959322668247914 C68.87031618194054,1.4959322668247914 106.77010301854774,1.0456068024663416 106.67110580679474,0.8474658106880657 C106.77010301854774,1.0456068024663416 112.18435828092024,26.71415827089738 112.08536137547273,26.516018731289158 C112.18435828092024,26.71415827089738 101.74258027491616,47.87945509574403 101.6435827787366,47.6813167535392 C101.74258027491616,47.87945509574403 117.98534606203356,60.03824263342189 117.88634948477056,59.84010497908709 C117.98534606203356,60.03824263342189 116.8251485058109,102.81916174747363 116.726151862911,102.62102651342227 C116.8251485058109,102.81916174747363 67.71011862571788,100.56753442568142 67.61111920418917,100.36939906424674 C67.71011862571788,100.56753442568142 68.87031618194054,1.4959322668247914 68.87031618194054,1.4959322668247914 z" style="color: rgb(74, 144, 214);" class=""/><path fill="#4a90d6" fill-opacity="1" stroke="#222222" stroke-opacity="1" stroke-width="2" stroke-dasharray="none" stroke-linejoin="round" stroke-linecap="butt" stroke-dashoffset="" fill-rule="nonzero" opacity="1" marker-start="url(#Arrow1Mstart)" marker-mid="" marker-end="" id="svg_5" d="M79.39683849028182,86.58318303084972 " style="color: rgb(74, 144, 214);" class=""/><path fill="#ffffff" fill-opacity="1" stroke="#dadada" stroke-opacity="1" stroke-width="2" stroke-dasharray="none" stroke-linejoin="round" stroke-linecap="butt" stroke-dashoffset="" fill-rule="nonzero" opacity="1" marker-start="" marker-mid="" marker-end="" d="M81.63404887361266,24.492346784834247 C81.63404887361266,20.48847801490709 84.83404858222761,17.2453443112661 88.7846655064436,17.2453443112661 C92.7352824306596,17.2453443112661 95.93528213927456,20.48847801490709 95.93528213927456,24.492346784834247 C95.93528213927456,28.4962155547614 92.7352824306596,31.73934925840239 88.7846655064436,31.73934925840239 C84.83404858222761,31.73934925840239 81.63404887361266,28.4962155547614 81.63404887361266,24.492346784834247 z" id="svg_4" class=""/><path fill="#ffffff" fill-opacity="1" stroke="#dadada" stroke-opacity="1" stroke-width="2" stroke-dasharray="none" stroke-linejoin="round" stroke-linecap="butt" stroke-dashoffset="" fill-rule="nonzero" opacity="1" marker-start="" marker-mid="" marker-end="" d="M81.63404887361266,78.84486533659533 C81.63404887361266,73.41104343455133 86.37478918267185,69.0096476938957 92.22755499632518,69.0096476938957 C98.0803208099785,69.0096476938957 102.82106111903771,73.41104343455133 102.82106111903771,78.84486533659533 C102.82106111903771,84.27868723863931 98.0803208099785,88.68008297929495 92.22755499632518,88.68008297929495 C86.37478918267185,88.68008297929495 81.63404887361266,84.27868723863931 81.63404887361266,78.84486533659533 z" id="svg_8" class=""/></g></g><defs><marker id="Arrow1Mstart" refX="0" refY="0" orient="auto" inkscape:stockid="Arrow1Mstart" overflow="visible">
            <path transform="scale(0.4000000059604645) translate(10,0) " d="M0 0l5-5-17.5 5 17.5 5-5-5z" fill-rule="evenodd" stroke="#000" stroke-width="1pt" style="fill: rgb(34, 34, 34); stroke: rgb(34, 34, 34); stroke-dasharray: none;" id="svg_2"/>
        </marker></defs></svg>